# xmcd
#
# Track frame offsets: 
#        150
#        13373
#        32708
#        42788
#        57289
#        74060
#        89121
#        110780
#        131046
#        147293
#        162057
#        179775
#
# Disc length: 2692 seconds
#
# Revision: 10
# Processed by: cddbd v1.5.2PL0 Copyright (c) Steve Scherf et al.
# Submitted via: ExactAudioCopy v1.1
#
DISCID=bc0a820c
DTITLE=Fleetwood Mac - Rumours (Deluxe Edition) Disc 1
DYEAR=1977
DGENRE=Rock
TTITLE0=Second Hand News
TTITLE1=Dreams
TTITLE2=Never Going Back Again
TTITLE3=Don't Stop
TTITLE4=Go Your Own Way
TTITLE5=Songbird
TTITLE6=Silver Springs
TTITLE7=The Chain
TTITLE8=You Make Loving Fun
TTITLE9=I Don't Want To Know
TTITLE10=Oh Daddy
TTITLE11=Gold Dust Woman
EXTD=YEAR: 1977
EXTT0=
EXTT1=
EXTT2=
EXTT3=
EXTT4=
EXTT5=
EXTT6=
EXTT7=
EXTT8=
EXTT9=
EXTT10=
EXTT11=
PLAYORDER=
